<svg width="16" height="3" viewBox="0 0 16 3" fill="none" xmlns="http://www.w3.org/2000/svg">
<path d="M8.9375 0.762695C9.875 0.762695 14.5625 0.762695 14.5625 0.762695C14.8111 0.762695 15.0496 0.857186 15.2254 1.02538C15.4012 1.19358 15.5 1.4217 15.5 1.65956C15.5 1.89742 15.4012 2.12555 15.2254 2.29374C15.0496 2.46194 14.8111 2.55643 14.5625 2.55643H8.9375C8.5 2.55643 8 2.55643 7.0625 2.55643H1.4375C1.18886 2.55643 0.950403 2.46194 0.774588 2.29374C0.598772 2.12555 0.5 1.89742 0.5 1.65956C0.5 1.4217 0.598772 1.19358 0.774588 1.02538C0.950403 0.857186 1.18886 0.762695 1.4375 0.762695C1.4375 0.762695 6.125 0.762695 7.0625 0.762695C8 0.762695 8 0.762695 8.9375 0.762695Z" fill="#4B4339"/>
</svg>
